<?xml version="1.0" encoding="utf-8"?>
<svg xmlns="http://www.w3.org/2000/svg" xmlns:svg="http://www.w3.org/2000/svg" version="1.1" viewBox="0 0 1400 440">
	<title>The titlepage for the Standard Ebooks edition of The Worst Journey in the World, by Apsley Cherry-Garrard</title>
	<g aria-label="THE WORST JOURNEY">
		<path d="m 134.43274,68.245613 h 18.33918 V 130 h 17.59064 V 68.245613 h 18.33919 V 52.807016 h -54.26901 z"/>
		<path d="m 217.62718,99.029239 h 24.88889 V 130 h 17.59065 V 52.807016 H 242.51607 V 83.590642 H 217.62718 V 52.807016 H 200.03654 V 130 h 17.59064 z"/>
		<path d="M 320.47222,52.807016 H 276.30848 V 130 h 44.16374 v -15.4386 h -26.5731 V 99.029239 h 25.45029 V 83.590642 H 293.89912 V 68.245613 h 26.5731 z"/>
		<path d="m 417.35672,130 h 19.46199 l 21.9883,-77.192984 h -19.46198 l -13.19299,52.959064 h -0.46783 L 411.64912,52.807016 h -13.28655 l -14.03509,52.959064 h -0.46784 L 370.66666,52.807016 H 351.11111 L 373.09941,130 h 19.55556 l 12.35087,-43.321638 z"/>
		<path d="m 461.64036,91.356724 c 0,22.549706 16.09356,40.046786 38.92397,40.046786 22.17544,0 38.83041,-17.49708 38.83041,-40.046786 0,-22.549708 -17.40351,-39.953217 -38.83041,-39.953217 -21.23976,0 -38.92397,17.403509 -38.92397,39.953217 z m 18.99415,0 c 0,-11.508772 6.36257,-23.017544 19.92982,-23.017544 13.66082,0 19.83626,11.508772 19.83626,23.017544 0,11.508776 -5.80117,23.017546 -19.83626,23.017546 -14.40935,0 -19.92982,-11.50877 -19.92982,-23.017546 z"/>
		<path d="M 552.15642,52.807016 V 130 h 17.59064 V 99.497075 L 593.32601,130 h 22.36258 l -26.5731,-31.906433 c 9.45029,-2.994152 15.81286,-10.760234 15.81286,-22.362574 0,-15.157895 -10.8538,-22.923977 -25.16959,-22.923977 z m 17.59064,34.245615 V 66.842104 h 2.05848 c 6.64328,0 14.5965,0.467836 14.5965,10.105263 0,9.637428 -7.95322,10.105264 -14.5965,10.105264 z"/>
		<path d="m 652.66959,51.403507 c -12.44444,0 -25.16959,9.169591 -25.16959,23.578948 0,8.046784 5.4269,15.251462 14.69006,19.836258 9.16959,4.584795 17.40351,7.111107 17.40351,12.725147 0,7.20468 -7.29825,7.57895 -11.1345,7.57895 -8.60819,0 -18.90059,-8.70176 -18.90059,-8.70176 l -8.79532,14.78363 c 0,0 10.94737,10.19883 29.00585,10.19883 15.06432,0 29.09941,-6.45614 29.09941,-24.88889 0,-10.105264 -9.45029,-17.40351 -18.05848,-21.052632 -8.79532,-3.742691 -16.09356,-6.83041 -16.09356,-11.134504 0,-4.210526 3.18128,-6.923976 9.16959,-6.923976 7.95321,0 15.62573,5.333333 15.62573,5.333333 l 7.11111,-14.035088 c 0,0 -9.91813,-7.298246 -23.95322,-7.298246 z"/>
		<path d="m 682.65643,68.245613 h 18.33918 V 130 h 17.59065 V 68.245613 h 18.33918 V 52.807016 h -54.26901 z"/>
		<path d="M 812.43569,52.807016 H 794.84505 V 103.7076 c 0,7.76608 -3.83626,10.8538 -8.88889,10.8538 -4.49123,0 -10.01169,-5.23976 -10.01169,-5.23976 l -5.61404,14.69006 c 0,0 7.01754,7.39181 18.05848,7.39181 15.4386,0 24.04678,-8.04678 24.04678,-23.20468 z"/>
		<path d="m 824.24268,91.356724 c 0,22.549706 16.09357,40.046786 38.92398,40.046786 22.17544,0 38.83041,-17.49708 38.83041,-40.046786 0,-22.549708 -17.40351,-39.953217 -38.83041,-39.953217 -21.23977,0 -38.92398,17.403509 -38.92398,39.953217 z m 18.99415,0 c 0,-11.508772 6.36258,-23.017544 19.92983,-23.017544 13.66082,0 19.83626,11.508772 19.83626,23.017544 0,11.508776 -5.80117,23.017546 -19.83626,23.017546 -14.40936,0 -19.92983,-11.50877 -19.92983,-23.017546 z"/>
		<path d="m 974.08039,52.807016 h -17.59065 v 44.63158 c 0,12.912284 -3.92982,16.654974 -12.53801,16.654974 -8.60819,0 -12.53801,-3.74269 -12.53801,-16.654974 v -44.63158 h -17.59065 v 49.777774 c 0,19.08772 10.47954,28.81872 30.12866,28.81872 19.64912,0 30.12866,-9.731 30.12866,-28.81872 z"/>
		<path d="M 989.38594,52.807016 V 130 h 17.59066 V 99.497075 L 1030.5555,130 h 22.3626 L 1026.345,98.093567 c 9.4503,-2.994152 15.8129,-10.760234 15.8129,-22.362574 0,-15.157895 -10.8538,-22.923977 -25.1696,-22.923977 z m 17.59066,34.245615 V 66.842104 h 2.0585 c 6.6432,0 14.5965,0.467836 14.5965,10.105263 0,9.637428 -7.9533,10.105264 -14.5965,10.105264 z"/>
		<path d="m 1079.0453,82.093566 h 0.1871 L 1109.9225,130 h 17.5907 V 52.807016 h -17.5907 v 47.906434 h -0.1871 l -30.6901,-47.906434 h -17.5906 V 130 h 17.5906 z"/>
		<path d="m 1187.9211,52.807016 h -44.1638 V 130 h 44.1638 V 114.5614 H 1161.348 V 99.029239 h 25.4503 V 83.590642 H 1161.348 V 68.245613 h 26.5731 z"/>
		<path d="m 1194.6125,52.807016 28.4445,42.5731 V 130 h 17.5906 V 95.380116 l 28.4445,-42.5731 h -21.1462 l -16.0936,24.701755 -16.0936,-24.701755 z"/>
	</g>
	<g aria-label="IN THE WORLD">
		<path d="M 346.19809,152.80702 H 328.60745 V 230 h 17.59064 z"/>
		<path d="m 380.07236,182.09357 h 0.18714 L 410.94955,230 h 17.59065 v -77.19298 h -17.59065 v 47.90643 h -0.18713 L 380.07236,152.80702 H 362.48172 V 230 h 17.59064 z"/>
		<path d="m 465.93495,168.24561 h 18.33918 V 230 h 17.59064 v -61.75439 h 18.33918 v -15.43859 h -54.269 z"/>
		<path d="m 549.12938,199.02924 h 24.88889 V 230 h 17.59065 v -77.19298 h -17.59065 v 30.78362 H 549.12938 V 152.80702 H 531.53874 V 230 h 17.59064 z"/>
		<path d="M 651.97441,152.80702 H 607.81067 V 230 h 44.16374 v -15.4386 h -26.5731 v -15.53216 h 25.45029 v -15.4386 h -25.45029 v -15.34503 h 26.5731 z"/>
		<path d="m 748.85893,230 h 19.46199 l 21.9883,-77.19298 h -19.46199 l -13.19298,52.95906 h -0.46784 l -14.03508,-52.95906 h -13.28655 l -14.03509,52.95906 h -0.46784 L 702.16887,152.80702 H 682.61331 L 704.60162,230 h 19.55555 l 12.35088,-43.32164 z"/>
		<path d="m 793.14256,191.35672 c 0,22.54971 16.09357,40.04679 38.92398,40.04679 22.17544,0 38.83041,-17.49708 38.83041,-40.04679 0,-22.5497 -17.40351,-39.95321 -38.83041,-39.95321 -21.23977,0 -38.92398,17.40351 -38.92398,39.95321 z m 18.99415,0 c 0,-11.50877 6.36258,-23.01754 19.92983,-23.01754 13.66082,0 19.83626,11.50877 19.83626,23.01754 0,11.50878 -5.80117,23.01755 -19.83626,23.01755 -14.40936,0 -19.92983,-11.50877 -19.92983,-23.01755 z"/>
		<path d="M 883.65866,152.80702 V 230 H 901.2493 V 199.49708 L 924.82825,230 h 22.36257 l -26.5731,-31.90643 c 9.4503,-2.99416 15.81287,-10.76024 15.81287,-22.36258 0,-15.15789 -10.8538,-22.92397 -25.16959,-22.92397 z m 17.59064,34.24561 V 166.8421 h 2.05848 c 6.64328,0 14.59649,0.46784 14.59649,10.10527 0,9.63742 -7.95321,10.10526 -14.59649,10.10526 z"/>
		<path d="M 973.31797,152.80702 H 955.72732 V 230 h 44.16375 v -15.4386 h -26.5731 z"/>
		<path d="M 1013.5417,152.80702 V 230 h 22.3625 c 21.2398,0 38.924,-16.09357 38.924,-38.64328 0,-22.45614 -17.7778,-38.5497 -38.924,-38.5497 z m 17.5906,61.47368 v -45.75439 h 2.7134 c 13.0995,0 21.9884,10.0117 21.9884,22.92398 -0.094,12.91228 -8.9825,22.83041 -21.9884,22.83041 z"/>
	</g>
	<g aria-label="APSLEY CHERRY-GARRARD">
		<path d="M 189.71327,332.10526 H 177.50275 L 154.13432,390 h 14.17544 l 4.28071,-11.57895 h 22.03508 L 198.90625,390 h 14.17544 z m 0.42105,34.73685 H 177.08169 L 183.53783,350 h 0.14035 z"/>
		<path d="M 220.27139,332.10526 V 390 h 13.19298 v -21.47368 h 7.92982 c 11.29825,0 19.78948,-6.66667 19.78948,-18.5965 0,-11.99999 -8.49123,-17.82456 -19.78948,-17.82456 z M 233.46437,358 v -15.36842 h 3.7193 c 5.19298,0 10.10526,1.75439 10.10526,7.7193 0,5.89473 -4.91228,7.64912 -10.10526,7.64912 z"/>
		<path d="m 291.97205,331.05263 c -9.33334,0 -18.8772,6.8772 -18.8772,17.68421 0,6.03509 4.07018,11.4386 11.01755,14.8772 6.87719,3.43859 13.05263,5.33333 13.05263,9.54385 0,5.40351 -5.47369,5.68422 -8.35088,5.68422 -6.45614,0 -14.17544,-6.52632 -14.17544,-6.52632 l -6.59649,11.08772 c 0,0 8.21053,7.64912 21.75439,7.64912 11.29824,0 21.82456,-4.8421 21.82456,-18.66666 0,-7.57895 -7.08772,-13.05264 -13.54386,-15.78948 -6.59649,-2.80702 -12.07018,-5.12281 -12.07018,-8.35088 0,-3.15789 2.38597,-5.19298 6.8772,-5.19298 5.96491,0 11.71929,4 11.71929,4 l 5.33334,-10.52631 c 0,0 -7.4386,-5.47369 -17.96491,-5.47369 z"/>
		<path d="M 335.98082,332.10526 H 322.78784 V 390 h 33.1228 v -11.57895 h -19.92982 z"/>
		<path d="M 400.52139,332.10526 H 367.39858 V 390 h 33.12281 v -11.57895 h -19.92982 v -11.64912 h 19.08772 v -11.57895 h -19.08772 v -11.50877 h 19.92982 z"/>
		<path d="m 406.79003,332.10526 21.33333,31.92983 V 390 h 13.19298 v -25.96491 l 21.33333,-31.92983 h -15.85965 l -12.07017,18.52632 -12.07018,-18.52632 z"/>
		<path d="m 522.58059,378.07018 c -13.26316,0 -19.08772,-9.26316 -19.08772,-17.05264 0,-7.71929 5.82456,-16.98245 19.08772,-16.98245 6.73684,0 11.36842,3.57895 11.36842,3.57895 l 5.61403,-11.22807 c 0,0 -6.45614,-5.33334 -19.01754,-5.33334 -16.42105,0 -31.36842,13.47369 -31.36842,30.10527 0,16.5614 15.01754,29.89473 31.36842,29.89473 12.5614,0 19.01754,-5.33333 19.01754,-5.33333 l -5.61403,-11.22807 c 0,0 -4.63158,3.57895 -11.36842,3.57895 z"/>
		<path d="m 562.87225,366.77193 h 18.66667 V 390 h 13.19298 v -57.89474 h -13.19298 v 23.08772 H 562.87225 V 332.10526 H 549.67927 V 390 h 13.19298 z"/>
		<path d="M 641.25603,332.10526 H 608.13322 V 390 h 33.12281 V 378.42105 H 621.3262 v -11.64912 h 19.08772 V 355.19298 H 621.3262 v -11.50877 h 19.92983 z"/>
		<path d="M 653.84046,332.10526 V 390 h 13.19299 V 367.12281 L 684.71766,390 h 16.77193 l -19.92983,-23.92982 c 7.08772,-2.24562 11.85965,-8.07018 11.85965,-16.77193 0,-11.36842 -8.14035,-17.19299 -18.87719,-17.19299 z m 13.19299,25.68421 v -15.15789 h 1.54386 c 4.98245,0 10.94736,0.35088 10.94736,7.57895 0,7.22807 -5.96491,7.57894 -10.94736,7.57894 z"/>
		<path d="M 709.14198,332.10526 V 390 h 13.19298 V 367.12281 L 740.01917,390 h 16.77193 l -19.92982,-23.92982 c 7.08772,-2.24562 11.85964,-8.07018 11.85964,-16.77193 0,-11.36842 -8.14035,-17.19299 -18.87719,-17.19299 z m 13.19298,25.68421 v -15.15789 h 1.54386 c 4.98246,0 10.94737,0.35088 10.94737,7.57895 0,7.22807 -5.96491,7.57894 -10.94737,7.57894 z"/>
		<path d="m 751.82289,332.10526 21.33334,31.92983 V 390 h 13.19298 v -25.96491 l 21.33333,-31.92983 h -15.85965 l -12.07017,18.52632 -12.07018,-18.52632 z"/>
		<path d="m 811.38435,364.31579 v 10.73684 h 22.59649 v -10.73684 z"/>
		<path d="m 899.71106,357.57895 h -26.73685 v 10.17544 h 13.33334 c 0,7.08772 -6.24562,11.15789 -12.56141,11.15789 -8.14035,0 -14.73684,-8 -14.73684,-17.82456 0,-10.03509 6.59649,-18.10526 14.73684,-18.10526 5.12281,0 9.54386,2.03508 12.91228,7.43859 l 8.63158,-9.47368 c -5.05263,-6.10526 -12.14035,-9.89474 -22.31579,-9.89474 -16.2807,0 -28.21052,13.40351 -28.21052,30.03509 0,16.5614 12.63158,29.96491 28.21052,29.96491 11.36842,0 23.57895,-6.24561 26.73685,-20.91228 z"/>
		<path d="M 939.87776,332.10526 H 927.66724 L 904.29881,390 h 14.17544 l 4.2807,-11.57895 h 22.03509 L 949.07074,390 h 14.17544 z m 0.42105,34.73685 H 927.24618 L 933.70232,350 h 0.14035 z"/>
		<path d="M 970.43586,332.10526 V 390 h 13.19298 V 367.12281 L 1001.3131,390 h 16.7719 l -19.92984,-23.92982 c 7.08774,-2.24562 11.85964,-8.07018 11.85964,-16.77193 0,-11.36842 -8.1403,-17.19299 -18.87718,-17.19299 z m 13.19298,25.68421 v -15.15789 h 1.54386 c 4.98246,0 10.94737,0.35088 10.94737,7.57895 0,7.22807 -5.96491,7.57894 -10.94737,7.57894 z"/>
		<path d="M 1025.7374,332.10526 V 390 h 13.193 V 367.12281 L 1056.6146,390 h 16.7719 l -19.9298,-23.92982 c 7.0877,-2.24562 11.8596,-8.07018 11.8596,-16.77193 0,-11.36842 -8.1403,-17.19299 -18.8772,-17.19299 z m 13.193,25.68421 v -15.15789 h 1.5438 c 4.9825,0 10.9474,0.35088 10.9474,7.57895 0,7.22807 -5.9649,7.57894 -10.9474,7.57894 z"/>
		<path d="m 1110.4425,332.10526 h -12.2106 L 1074.8635,390 h 14.1755 l 4.2807,-11.57895 h 22.035 L 1119.6354,390 h 14.1755 z m 0.421,34.73685 h -13.0526 L 1104.267,350 h 0.1404 z"/>
		<path d="M 1141.0006,332.10526 V 390 h 13.1929 V 367.12281 L 1171.8778,390 h 16.7719 l -19.9298,-23.92982 c 7.0877,-2.24562 11.8596,-8.07018 11.8596,-16.77193 0,-11.36842 -8.1403,-17.19299 -18.8772,-17.19299 z m 13.1929,25.68421 v -15.15789 h 1.5439 c 4.9825,0 10.9474,0.35088 10.9474,7.57895 0,7.22807 -5.9649,7.57894 -10.9474,7.57894 z"/>
		<path d="M 1196.3021,332.10526 V 390 h 16.7719 c 15.9298,0 29.193,-12.07018 29.193,-28.98246 0,-16.8421 -13.3333,-28.91228 -29.193,-28.91228 z m 13.193,46.10527 v -34.31579 h 2.035 c 9.8246,0 16.4913,7.50877 16.4913,17.19298 -0.07,9.68421 -6.7369,17.12281 -16.4913,17.12281 z"/>
	</g>
</svg>
