<?xml version="1.0" encoding="UTF-8"?>
<svg xmlns="http://www.w3.org/2000/svg" xmlns:se="https://standardebooks.org/vocab/1.0" version="1.1" viewBox="0 0 1400 440" se:generated-from="a55a1ba05943fca340ad33f33fc0d2816d6172ea">
	<path d="M 132.57856,66.843806 150.91828,66.843806 150.91828,128.60001 168.50944,128.60001 168.50944,66.843806 186.84916,66.843806 186.84916,51.404756 132.57856,51.404756 132.57856,66.843806 Z"/>
	<path d="M 215.7753,97.628336 240.66492,97.628336 240.66492,128.60001 258.25608,128.60001 258.25608,51.404756 240.66492,51.404756 240.66492,82.189286 215.7753,82.189286 215.7753,51.404756 198.18414,51.404756 198.18414,128.60001 215.7753,128.60001 215.7753,97.628336 Z"/>
	<path d="M 318.6232,51.404756 274.45816,51.404756 274.45816,128.60001 318.6232,128.60001 318.6232,113.16096 292.04932,113.16096 292.04932,97.628336 317.50036,97.628336 317.50036,82.189286 292.04932,82.189286 292.04932,66.843806 318.6232,66.843806 318.6232,51.404756 Z"/>
	<path d="M 415.69301,128.60001 435.15557,128.60001 457.14452,51.404756 437.68196,51.404756 424.48859,104.36538 424.02074,104.36538 409.98524,51.404756 396.6983,51.404756 382.6628,104.36538 382.19495,104.36538 369.00158,51.404756 349.44545,51.404756 371.4344,128.60001 390.99053,128.60001 403.34177,85.277096 415.69301,128.60001 Z"/>
	<path d="M 459.97778,89.955596 C 459.97778,112.50597 476.07182,130.00356 498.9029,130.00356 521.07899,130.00356 537.73445,112.50597 537.73445,89.955596 537.73445,67.405226 520.33043,50.001206 498.9029,50.001206 477.66251,50.001206 459.97778,67.405226 459.97778,89.955596 Z M 478.97249,89.955596 C 478.97249,78.446486 485.33525,66.937376 498.9029,66.937376 512.56412,66.937376 518.73974,78.446486 518.73974,89.955596 518.73974,101.46471 512.9384,112.97382 498.9029,112.97382 484.49312,112.97382 478.97249,101.46471 478.97249,89.955596 Z"/>
	<path d="M 550.49639,51.404756 550.49639,128.60001 568.08755,128.60001 568.08755,98.096186 591.66719,128.60001 614.03042,128.60001 587.45654,96.692636 C 596.90711,93.698396 603.26987,85.932086 603.26987,74.329406 603.26987,59.171066 592.41575,51.404756 578.09954,51.404756 L 550.49639,51.404756 Z M 568.08755,85.651376 568.08755,65.440256 570.14609,65.440256 C 576.78956,65.440256 584.74301,65.908106 584.74301,75.545816 584.74301,85.183526 576.78956,85.651376 570.14609,85.651376 L 568.08755,85.651376 Z"/>
	<path d="M 651.01235,50.001206 C 638.56754,50.001206 625.84202,59.171066 625.84202,73.580846 625.84202,81.627866 631.26908,88.832756 640.53251,93.417686 649.70237,98.002616 657.93653,100.52901 657.93653,106.14321 657.93653,113.3481 650.63807,113.72238 646.8017,113.72238 638.19326,113.72238 627.90056,105.02037 627.90056,105.02037 L 619.10498,119.80443 C 619.10498,119.80443 630.05267,130.00356 648.11168,130.00356 663.17645,130.00356 677.21195,123.54723 677.21195,105.11394 677.21195,95.008376 667.76138,87.709916 659.15294,84.060686 650.35736,80.317886 643.0589,77.230076 643.0589,72.925856 643.0589,68.715206 646.24028,66.001676 652.22876,66.001676 660.18221,66.001676 667.85495,71.335166 667.85495,71.335166 L 674.96627,57.299666 C 674.96627,57.299666 665.04785,50.001206 651.01235,50.001206 Z"/>
	<path d="M 680.99995,66.843806 699.33967,66.843806 699.33967,128.60001 716.93083,128.60001 716.93083,66.843806 735.27055,66.843806 735.27055,51.404756 680.99995,51.404756 680.99995,66.843806 Z"/>
	<path d="M 810.78266,51.404756 793.1915,51.404756 793.1915,102.30684 C 793.1915,110.07315 789.35513,113.16096 784.30235,113.16096 779.81099,113.16096 774.29036,107.92104 774.29036,107.92104 L 768.67616,122.61153 C 768.67616,122.61153 775.69391,130.00356 786.73517,130.00356 802.17422,130.00356 810.78266,121.95654 810.78266,106.7982 L 810.78266,51.404756 Z"/>
	<path d="M 822.5899,89.955596 C 822.5899,112.50597 838.68394,130.00356 861.51502,130.00356 883.69111,130.00356 900.34657,112.50597 900.34657,89.955596 900.34657,67.405226 882.94255,50.001206 861.51502,50.001206 840.27463,50.001206 822.5899,67.405226 822.5899,89.955596 Z M 841.58461,89.955596 C 841.58461,78.446486 847.94737,66.937376 861.51502,66.937376 875.17624,66.937376 881.35186,78.446486 881.35186,89.955596 881.35186,101.46471 875.55052,112.97382 861.51502,112.97382 847.10524,112.97382 841.58461,101.46471 841.58461,89.955596 Z"/>
	<path d="M 972.43189,51.404756 954.84073,51.404756 954.84073,96.037646 C 954.84073,108.95031 950.91079,112.69311 942.30235,112.69311 933.69391,112.69311 929.76397,108.95031 929.76397,96.037646 L 929.76397,51.404756 912.17281,51.404756 912.17281,101.184 C 912.17281,120.27228 922.65265,130.00356 942.30235,130.00356 961.95205,130.00356 972.43189,120.27228 972.43189,101.184 L 972.43189,51.404756 Z"/>
	<path d="M 987.73772,51.404756 987.73772,128.60001 1005.3289,128.60001 1005.3289,98.096186 1028.9085,128.60001 1051.2717,128.60001 1024.6979,96.692636 C 1034.1484,93.698396 1040.5112,85.932086 1040.5112,74.329406 1040.5112,59.171066 1029.6571,51.404756 1015.3409,51.404756 L 987.73772,51.404756 Z M 1005.3289,85.651376 1005.3289,65.440256 1007.3874,65.440256 C 1014.0309,65.440256 1021.9843,65.908106 1021.9843,75.545816 1021.9843,85.183526 1014.0309,85.651376 1007.3874,85.651376 L 1005.3289,85.651376 Z"/>
	<path d="M 1077.3996,80.692166 1077.5867,80.692166 1108.2777,128.60001 1125.8688,128.60001 1125.8688,51.404756 1108.2777,51.404756 1108.2777,99.312596 1108.0905,99.312596 1077.3996,51.404756 1059.8084,51.404756 1059.8084,128.60001 1077.3996,128.60001 1077.3996,80.692166 Z"/>
	<path d="M 1186.2784,51.404756 1142.1133,51.404756 1142.1133,128.60001 1186.2784,128.60001 1186.2784,113.16096 1159.7045,113.16096 1159.7045,97.628336 1185.1555,97.628336 1185.1555,82.189286 1159.7045,82.189286 1159.7045,66.843806 1186.2784,66.843806 1186.2784,51.404756 Z"/>
	<path d="M 1192.9699,51.404756 1221.4152,93.979106 1221.4152,128.60001 1239.0064,128.60001 1239.0064,93.979106 1267.4516,51.404756 1246.3048,51.404756 1230.2108,76.107236 1214.1167,51.404756 1192.9699,51.404756 Z"/>
	<path d="M 344.38535,151.40476 326.79419,151.40476 326.79419,228.60001 344.38535,228.60001 344.38535,151.40476 Z"/>
	<path d="M 378.26047,180.69217 378.44761,180.69217 409.13857,228.60001 426.72973,228.60001 426.72973,151.40476 409.13857,151.40476 409.13857,199.3126 408.95143,199.3126 378.26047,151.40476 360.66931,151.40476 360.66931,228.60001 378.26047,228.60001 378.26047,180.69217 Z"/>
	<path d="M 464.12527,166.84381 482.46499,166.84381 482.46499,228.60001 500.05615,228.60001 500.05615,166.84381 518.39587,166.84381 518.39587,151.40476 464.12527,151.40476 464.12527,166.84381 Z"/>
	<path d="M 547.32201,197.62834 572.21163,197.62834 572.21163,228.60001 589.80279,228.60001 589.80279,151.40476 572.21163,151.40476 572.21163,182.18929 547.32201,182.18929 547.32201,151.40476 529.73085,151.40476 529.73085,228.60001 547.32201,228.60001 547.32201,197.62834 Z"/>
	<path d="M 650.16993,151.40476 606.00489,151.40476 606.00489,228.60001 650.16993,228.60001 650.16993,213.16096 623.59605,213.16096 623.59605,197.62834 649.04709,197.62834 649.04709,182.18929 623.59605,182.18929 623.59605,166.84381 650.16993,166.84381 650.16993,151.40476 Z"/>
	<path d="M 747.23973,228.60001 766.70229,228.60001 788.69124,151.40476 769.22868,151.40476 756.03531,204.36538 755.56746,204.36538 741.53196,151.40476 728.24502,151.40476 714.20952,204.36538 713.74167,204.36538 700.5483,151.40476 680.99217,151.40476 702.98112,228.60001 722.53725,228.60001 734.88849,185.2771 747.23973,228.60001 Z"/>
	<path d="M 791.52449,189.9556 C 791.52449,212.50597 807.61853,230.00356 830.44961,230.00356 852.6257,230.00356 869.28116,212.50597 869.28116,189.9556 869.28116,167.40523 851.87714,150.00121 830.44961,150.00121 809.20922,150.00121 791.52449,167.40523 791.52449,189.9556 Z M 810.5192,189.9556 C 810.5192,178.44649 816.88196,166.93738 830.44961,166.93738 844.11083,166.93738 850.28645,178.44649 850.28645,189.9556 850.28645,201.46471 844.48511,212.97382 830.44961,212.97382 816.03983,212.97382 810.5192,201.46471 810.5192,189.9556 Z"/>
	<path d="M 882.04309,151.40476 882.04309,228.60001 899.63425,228.60001 899.63425,198.09619 923.21389,228.60001 945.57712,228.60001 919.00324,196.69264 C 928.45381,193.6984 934.81657,185.93209 934.81657,174.32941 934.81657,159.17107 923.96245,151.40476 909.64624,151.40476 L 882.04309,151.40476 Z M 899.63425,185.65138 899.63425,165.44026 901.69279,165.44026 C 908.33626,165.44026 916.28971,165.90811 916.28971,175.54582 916.28971,185.18353 908.33626,185.65138 901.69279,185.65138 L 899.63425,185.65138 Z"/>
	<path d="M 971.70493,151.40476 954.11377,151.40476 954.11377,228.60001 998.27881,228.60001 998.27881,213.16096 971.70493,213.16096 971.70493,151.40476 Z"/>
	<path d="M 1011.9296,151.40476 1011.9296,228.60001 1034.2929,228.60001 C 1055.5332,228.60001 1073.218,212.50597 1073.218,189.9556 1073.218,167.4988 1055.4397,151.40476 1034.2929,151.40476 L 1011.9296,151.40476 Z M 1029.5208,212.88025 1029.5208,167.12452 1032.2343,167.12452 C 1045.3341,167.12452 1054.2233,177.13651 1054.2233,190.04917 1054.1297,202.96183 1045.2405,212.88025 1032.2343,212.88025 L 1029.5208,212.88025 Z"/>
	<path d="M 191.51621,331.05151 179.30489,331.05151 155.93495,388.95001 170.11131,388.95001 174.39229,377.37031 196.42881,377.37031 200.70979,388.95001 214.88615,388.95001 191.51621,331.05151 Z M 191.93729,365.79061 178.88381,365.79061 185.34037,348.94741 185.48073,348.94741 191.93729,365.79061 Z"/>
	<path d="M 222.07599,331.05151 222.07599,388.95001 235.26983,388.95001 235.26983,367.47493 243.20017,367.47493 C 254.49915,367.47493 262.99093,360.80783 262.99093,348.87723 262.99093,336.87645 254.49915,331.05151 243.20017,331.05151 L 222.07599,331.05151 Z M 235.26983,356.94793 235.26983,341.57851 238.98937,341.57851 C 244.18269,341.57851 249.09529,343.33301 249.09529,349.29831 249.09529,355.19343 244.18269,356.94793 238.98937,356.94793 L 235.26983,356.94793 Z"/>
	<path d="M 293.78098,329.99881 C 284.44704,329.99881 274.90256,336.87645 274.90256,347.68417 274.90256,353.71965 278.973,359.12351 285.92082,362.56233 292.79846,366.00115 298.9743,367.89601 298.9743,372.10681 298.9743,377.51067 293.50026,377.79139 290.62288,377.79139 284.16632,377.79139 276.44652,371.26465 276.44652,371.26465 L 269.8496,382.35309 C 269.8496,382.35309 278.06066,390.00271 291.6054,390.00271 302.90438,390.00271 313.43138,385.16029 313.43138,371.33483 313.43138,363.75539 306.3432,358.28135 299.88664,355.54433 293.28972,352.73713 287.81568,350.42119 287.81568,347.19291 287.81568,344.03481 290.2018,341.99959 294.69332,341.99959 300.65862,341.99959 306.41338,345.99985 306.41338,345.99985 L 311.74706,335.47285 C 311.74706,335.47285 304.30798,329.99881 293.78098,329.99881 Z"/>
	<path d="M 337.79229,331.05151 324.59845,331.05151 324.59845,388.95001 357.72341,388.95001 357.72341,377.37031 337.79229,377.37031 337.79229,331.05151 Z"/>
	<path d="M 402.33674,331.05151 369.21178,331.05151 369.21178,388.95001 402.33674,388.95001 402.33674,377.37031 382.40562,377.37031 382.40562,365.72043 401.49458,365.72043 401.49458,354.14073 382.40562,354.14073 382.40562,342.63121 402.33674,342.63121 402.33674,331.05151 Z"/>
	<path d="M 408.60545,331.05151 429.94017,362.98341 429.94017,388.95001 443.13401,388.95001 443.13401,362.98341 464.46873,331.05151 448.60805,331.05151 436.53709,349.57903 424.46613,331.05151 408.60545,331.05151 Z"/>
	<path d="M 524.40291,377.01941 C 511.13889,377.01941 505.31395,367.75565 505.31395,359.96567 505.31395,352.24587 511.13889,342.98211 524.40291,342.98211 531.14019,342.98211 535.77207,346.56129 535.77207,346.56129 L 541.38647,335.33249 C 541.38647,335.33249 534.92991,329.99881 522.36769,329.99881 505.94557,329.99881 490.99723,343.47337 490.99723,360.10603 490.99723,376.66851 506.01575,390.00271 522.36769,390.00271 534.92991,390.00271 541.38647,384.66903 541.38647,384.66903 L 535.77207,373.44023 C 535.77207,373.44023 531.14019,377.01941 524.40291,377.01941 Z"/>
	<path d="M 564.69685,365.72043 583.36473,365.72043 583.36473,388.95001 596.55857,388.95001 596.55857,331.05151 583.36473,331.05151 583.36473,354.14073 564.69685,354.14073 564.69685,331.05151 551.50301,331.05151 551.50301,388.95001 564.69685,388.95001 564.69685,365.72043 Z"/>
	<path d="M 643.08539,331.05151 609.96043,331.05151 609.96043,388.95001 643.08539,388.95001 643.08539,377.37031 623.15427,377.37031 623.15427,365.72043 642.24323,365.72043 642.24323,354.14073 623.15427,354.14073 623.15427,342.63121 643.08539,342.63121 643.08539,331.05151 Z"/>
	<path d="M 655.67033,331.05151 655.67033,388.95001 668.86417,388.95001 668.86417,366.07133 686.54953,388.95001 703.32255,388.95001 683.39143,365.01863 C 690.47961,362.77287 695.25185,356.94793 695.25185,348.24561 695.25185,336.87645 687.11097,331.05151 676.37343,331.05151 L 655.67033,331.05151 Z M 668.86417,356.73739 668.86417,341.57851 670.40813,341.57851 C 675.39091,341.57851 681.35621,341.92941 681.35621,349.15795 681.35621,356.38649 675.39091,356.73739 670.40813,356.73739 L 668.86417,356.73739 Z"/>
	<path d="M 710.97511,331.05151 710.97511,388.95001 724.16895,388.95001 724.16895,366.07133 741.85431,388.95001 758.62733,388.95001 738.69621,365.01863 C 745.78439,362.77287 750.55663,356.94793 750.55663,348.24561 750.55663,336.87645 742.41575,331.05151 731.67821,331.05151 L 710.97511,331.05151 Z M 724.16895,356.73739 724.16895,341.57851 725.71291,341.57851 C 730.69569,341.57851 736.66099,341.92941 736.66099,349.15795 736.66099,356.38649 730.69569,356.73739 725.71291,356.73739 L 724.16895,356.73739 Z"/>
	<path d="M 753.65849,331.05151 774.99321,362.98341 774.99321,388.95001 788.18705,388.95001 788.18705,362.98341 809.52177,331.05151 793.66109,331.05151 781.59013,349.57903 769.51917,331.05151 753.65849,331.05151 Z"/>
	<path d="M 813.22346,363.26413 813.22346,374.00167 835.82142,374.00167 835.82142,363.26413 813.22346,363.26413 Z"/>
	<path d="M 901.55565,356.52685 874.81707,356.52685 874.81707,366.70295 888.15127,366.70295 C 888.15127,373.79113 881.90525,377.86157 875.58905,377.86157 867.44817,377.86157 860.85125,369.86105 860.85125,360.03585 860.85125,350.00011 867.44817,341.92941 875.58905,341.92941 880.71219,341.92941 885.13353,343.96463 888.50217,349.36849 L 897.13431,339.89419 C 892.08135,333.78853 884.99317,329.99881 874.81707,329.99881 858.53531,329.99881 846.60471,343.40319 846.60471,360.03585 846.60471,376.59833 859.23711,390.00271 874.81707,390.00271 886.18623,390.00271 898.39755,383.75669 901.55565,369.08907 L 901.55565,356.52685 Z"/>
	<path d="M 941.72459,331.05151 929.51327,331.05151 906.14333,388.95001 920.31969,388.95001 924.60067,377.37031 946.63719,377.37031 950.91817,388.95001 965.09453,388.95001 941.72459,331.05151 Z M 942.14567,365.79061 929.09219,365.79061 935.54875,348.94741 935.68911,348.94741 942.14567,365.79061 Z"/>
	<path d="M 972.28438,331.05151 972.28438,388.95001 985.47822,388.95001 985.47822,366.07133 1003.1636,388.95001 1019.9366,388.95001 1000.0055,365.01863 C 1007.0937,362.77287 1011.8659,356.94793 1011.8659,348.24561 1011.8659,336.87645 1003.725,331.05151 992.98748,331.05151 L 972.28438,331.05151 Z M 985.47822,356.73739 985.47822,341.57851 987.02218,341.57851 C 992.00496,341.57851 997.97026,341.92941 997.97026,349.15795 997.97026,356.38649 992.00496,356.73739 987.02218,356.73739 L 985.47822,356.73739 Z"/>
	<path d="M 1027.5891,331.05151 1027.5891,388.95001 1040.783,388.95001 1040.783,366.07133 1058.4683,388.95001 1075.2413,388.95001 1055.3102,365.01863 C 1062.3984,362.77287 1067.1706,356.94793 1067.1706,348.24561 1067.1706,336.87645 1059.0298,331.05151 1048.2922,331.05151 L 1027.5891,331.05151 Z M 1040.783,356.73739 1040.783,341.57851 1042.3269,341.57851 C 1047.3097,341.57851 1053.275,341.92941 1053.275,349.15795 1053.275,356.38649 1047.3097,356.73739 1042.3269,356.73739 L 1040.783,356.73739 Z"/>
	<path d="M 1112.2994,331.05151 1100.088,331.05151 1076.7181,388.95001 1090.8945,388.95001 1095.1754,377.37031 1117.212,377.37031 1121.4929,388.95001 1135.6693,388.95001 1112.2994,331.05151 Z M 1112.7204,365.79061 1099.667,365.79061 1106.1235,348.94741 1106.2639,348.94741 1112.7204,365.79061 Z"/>
	<path d="M 1142.8591,331.05151 1142.8591,388.95001 1156.053,388.95001 1156.053,366.07133 1173.7383,388.95001 1190.5114,388.95001 1170.5802,365.01863 C 1177.6684,362.77287 1182.4407,356.94793 1182.4407,348.24561 1182.4407,336.87645 1174.2998,331.05151 1163.5622,331.05151 L 1142.8591,331.05151 Z M 1156.053,356.73739 1156.053,341.57851 1157.5969,341.57851 C 1162.5797,341.57851 1168.545,341.92941 1168.545,349.15795 1168.545,356.38649 1162.5797,356.73739 1157.5969,356.73739 L 1156.053,356.73739 Z"/>
	<path d="M 1198.164,331.05151 1198.164,388.95001 1214.937,388.95001 C 1230.8679,388.95001 1244.1319,376.87905 1244.1319,359.96567 1244.1319,343.12247 1230.7977,331.05151 1214.937,331.05151 L 1198.164,331.05151 Z M 1211.3579,377.15977 1211.3579,342.84175 1213.3931,342.84175 C 1223.2183,342.84175 1229.8854,350.35101 1229.8854,360.03585 1229.8152,369.72069 1223.1481,377.15977 1213.3931,377.15977 L 1211.3579,377.15977 Z"/>
</svg>
